<svg width="56" height="57" viewBox="0 0 56 57" fill="none" xmlns="http://www.w3.org/2000/svg">
<rect x="4" y="4.5" width="48" height="48" rx="24" fill="#D1FADF"/>
<path d="M20.5 38.5V33.5M20.5 23.5V18.5M18 21H23M18 36H23M29 19.5L27.2658 24.0089C26.9838 24.7421 26.8428 25.1087 26.6235 25.4171C26.4292 25.6904 26.1904 25.9292 25.9171 26.1235C25.6087 26.3428 25.2421 26.4838 24.5089 26.7658L20 28.5L24.5089 30.2342C25.2421 30.5162 25.6087 30.6572 25.9171 30.8765C26.1904 31.0708 26.4292 31.3096 26.6235 31.5829C26.8428 31.8913 26.9838 32.2579 27.2658 32.9911L29 37.5L30.7342 32.9911C31.0162 32.2579 31.1572 31.8913 31.3765 31.5829C31.5708 31.3096 31.8096 31.0708 32.0829 30.8765C32.3913 30.6572 32.7579 30.5162 33.4911 30.2342L38 28.5L33.4911 26.7658C32.7579 26.4838 32.3913 26.3428 32.0829 26.1235C31.8096 25.9292 31.5708 25.6904 31.3765 25.4171C31.1572 25.1087 31.0162 24.7421 30.7342 24.0089L29 19.5Z" stroke="#039855" stroke-width="2" stroke-linecap="round" stroke-linejoin="round"/>
<rect x="4" y="4.5" width="48" height="48" rx="24" stroke="#ECFDF3" stroke-width="8"/>
</svg>
