<svg width="40" height="40" viewBox="0 0 40 40" fill="none" xmlns="http://www.w3.org/2000/svg">
<path d="M14.2856 28.5714C22.1754 28.5714 28.5713 22.1755 28.5713 14.2857C28.5713 13.3915 28.4892 12.5165 28.332 11.6679C27.4833 11.5107 26.6083 11.4286 25.7142 11.4286C17.8244 11.4286 11.4285 17.8245 11.4285 25.7143C11.4285 26.6084 11.5106 27.4834 11.6678 28.3321C12.5164 28.4893 13.3914 28.5714 14.2856 28.5714Z" fill="#70593E"/>
<path fill-rule="evenodd" clip-rule="evenodd" d="M11.6679 28.3321C5.02834 27.1025 0 21.2813 0 14.2857C0 6.39593 6.39593 0 14.2857 0C21.2813 0 27.1025 5.02834 28.3321 11.6679C27.4834 11.5107 26.6085 11.4286 25.7143 11.4286C17.8245 11.4286 11.4286 17.8245 11.4286 25.7143C11.4286 26.6085 11.5107 27.4834 11.6679 28.3321Z" fill="#151A59"/>
<path fill-rule="evenodd" clip-rule="evenodd" d="M14.2855 28.5714C22.1753 28.5714 28.5713 22.1754 28.5713 14.2856C28.5713 13.3915 28.4891 12.5165 28.3319 11.6678C34.9715 12.8974 39.9998 18.7186 39.9998 25.7142C39.9998 33.604 33.6039 39.9999 25.7141 39.9999C18.7185 39.9999 12.8973 34.9716 11.6677 28.332C12.5164 28.4892 13.3914 28.5714 14.2855 28.5714Z" fill="#F39800"/>
</svg>
