<svg width="40" height="40" viewBox="0 0 40 40" fill="none" xmlns="http://www.w3.org/2000/svg">
<path d="M7.48641 34.9962V25.8323H5.39634C4.76104 25.8323 4.15177 25.577 3.70255 25.1228C3.25333 24.6685 3.00098 24.0524 3.00098 23.4099C3.00098 22.7675 3.25333 22.1514 3.70255 21.6971C4.15177 21.2428 4.76104 20.9876 5.39634 20.9876H7.48735V15.7341C7.48735 9.33693 12.9974 7.10022 19.3244 7.10022C25.6513 7.10022 30.3937 9.33693 30.3937 15.7341V35" stroke="#151A59" stroke-width="1.5" stroke-miterlimit="10"/>
<path d="M24.9998 19.7765C24.9994 19.5221 25.0737 19.2734 25.2133 19.0618C25.3529 18.8501 25.5514 18.6852 25.7838 18.5878C26.0162 18.4904 26.2719 18.465 26.5186 18.5147C26.7653 18.5645 26.9918 18.6871 27.1695 18.8672C27.3471 19.0473 27.4679 19.2766 27.5166 19.5262C27.5652 19.7758 27.5395 20.0343 27.4427 20.2691C27.3459 20.5039 27.1824 20.7043 26.9728 20.845C26.7632 20.9857 26.5171 21.0603 26.2655 21.0593C25.9296 21.0583 25.6079 20.9228 25.3706 20.6823C25.1334 20.4419 25 20.1162 24.9998 19.7765Z" fill="#151A59"/>
<path d="M15.1379 19.7765C15.1379 19.5228 15.2123 19.2749 15.3516 19.064C15.4909 18.8531 15.6889 18.6886 15.9206 18.5915C16.1523 18.4943 16.4073 18.4688 16.6533 18.5182C16.8993 18.5675 17.1254 18.6895 17.3028 18.8687C17.4803 19.0479 17.6013 19.2763 17.6504 19.5251C17.6996 19.7738 17.6747 20.0317 17.579 20.2661C17.4833 20.5005 17.321 20.701 17.1126 20.8422C16.9042 20.9834 16.6592 21.0589 16.4084 21.0593C16.0719 21.0588 15.7493 20.9235 15.5112 20.6831C15.2731 20.4427 15.1389 20.1167 15.1379 19.7765Z" fill="#151A59"/>
<path d="M21.7609 18.623L23.3557 24.1415L21.2266 25.1556" stroke="#151A59" stroke-width="1.5" stroke-linecap="round" stroke-linejoin="round"/>
<path d="M32.2172 5H11.716C9.16773 5 7.10925 6.80347 7.10925 9.02515C7.10925 10.8502 6.66779 12.3896 7.91218 12.883C7.91636 12.8844 7.92004 12.887 7.9227 12.8905C7.92536 12.894 7.92687 12.8983 7.92704 12.9028L7.81924 21.251C7.82002 21.2563 7.82235 21.2613 7.82593 21.2653C7.82952 21.2693 7.8342 21.2721 7.83938 21.2734C7.84455 21.2747 7.84998 21.2745 7.855 21.2726C7.86002 21.2708 7.8644 21.2675 7.86757 21.2632L13.3321 13.0625C13.3347 13.059 13.3381 13.0562 13.3419 13.0542C13.3458 13.0523 13.3501 13.0512 13.3544 13.0512H32.3966C35.035 13.0512 37.1502 11.1153 36.9922 8.77892C36.8453 6.62772 34.6828 5 32.2172 5Z" fill="#151A59"/>
<path d="M14.8955 32.8133C14.0696 33.5474 13.0072 33.9515 11.9076 33.9496C11.3131 33.9497 10.7243 33.8314 10.175 33.6014C9.6257 33.3714 9.12653 33.0342 8.70608 32.6091C8.28563 32.184 7.95211 31.6793 7.72456 31.1238C7.497 30.5684 7.37988 29.973 7.37988 29.3718V29.3718V26.0637" stroke="#151A59" stroke-width="1.5" stroke-linejoin="round"/>
<path d="M14.5176 31.6873C14.5174 31.3943 14.6032 31.1077 14.7641 30.864C14.925 30.6203 15.1538 30.4303 15.4215 30.3181C15.6892 30.2059 15.9839 30.1765 16.2681 30.2337C16.5523 30.2909 16.8134 30.4321 17.0182 30.6394C17.2231 30.8467 17.3625 31.1108 17.4189 31.3982C17.4753 31.6857 17.446 31.9836 17.3349 32.2543C17.2238 32.5249 17.0358 32.7562 16.7947 32.9187C16.5535 33.0813 16.2702 33.1679 15.9804 33.1675C15.7882 33.1675 15.5979 33.1292 15.4204 33.0548C15.2428 32.9804 15.0815 32.8714 14.9457 32.7339C14.8098 32.5965 14.7021 32.4333 14.6287 32.2537C14.5552 32.0741 14.5175 31.8817 14.5176 31.6873V31.6873Z" stroke="#151A59" stroke-width="1.5" stroke-linejoin="round"/>
<path d="M24.3414 28.0353C24.3414 28.6753 22.9409 30.1526 21.2123 30.1526C19.4837 30.1526 18.0869 28.6753 18.0869 28.0353C18.0869 27.3953 19.4874 27.8473 21.2123 27.8473C22.9371 27.8473 24.3414 27.399 24.3414 28.0353Z" stroke="#151A59" stroke-width="1.5" stroke-linejoin="round"/>
</svg>
