<svg width="34" height="19" viewBox="0 0 34 19" fill="none" xmlns="http://www.w3.org/2000/svg">
<path d="M9.254 5.422V18.092H10.43V5.422H9.254ZM10.108 10.56V11.526H12.446V10.56H10.108ZM6.02 6.794V6.976C6.02 10.322 4.27 13.024 0.77 14.802L1.414 15.698C5.502 13.64 7.154 10.392 7.154 6.794H6.02ZM1.358 6.794V7.746H6.622V6.794H1.358ZM29.2298 0.46V18.56H30.9098V0.46H29.2298ZM30.4498 7.8V9.18H33.7898V7.8H30.4498ZM24.6098 2.42V2.68C24.6098 7.46 22.1098 11.32 17.1098 13.86L18.0298 15.14C23.8698 12.2 26.2298 7.56 26.2298 2.42H24.6098ZM17.9498 2.42V3.78H25.4698V2.42H17.9498Z" fill="white"/>
</svg>
