<svg width="56" height="57" viewBox="0 0 56 57" fill="none" xmlns="http://www.w3.org/2000/svg">
<rect x="4" y="4.5" width="48" height="48" rx="24" fill="#D1FADF"/>
<path d="M27 20.5H22.8C21.1198 20.5 20.2798 20.5 19.638 20.827C19.0735 21.1146 18.6146 21.5735 18.327 22.138C18 22.7798 18 23.6198 18 25.3V33.7C18 35.3802 18 36.2202 18.327 36.862C18.6146 37.4265 19.0735 37.8854 19.638 38.173C20.2798 38.5 21.1198 38.5 22.8 38.5H31.2C32.8802 38.5 33.7202 38.5 34.362 38.173C34.9265 37.8854 35.3854 37.4265 35.673 36.862C36 36.2202 36 35.3802 36 33.7V29.5M24 32.5H25.6745C26.1637 32.5 26.4083 32.5 26.6385 32.4447C26.8425 32.3957 27.0376 32.3149 27.2166 32.2053C27.4184 32.0816 27.5914 31.9086 27.9373 31.5627L37.5 22C38.3284 21.1716 38.3284 19.8284 37.5 19C36.6716 18.1716 35.3284 18.1716 34.5 19L24.9372 28.5627C24.5913 28.9086 24.4184 29.0816 24.2947 29.2834C24.185 29.4624 24.1042 29.6575 24.0552 29.8615C24 30.0917 24 30.3363 24 30.8255V32.5Z" stroke="#039855" stroke-width="2" stroke-linecap="round" stroke-linejoin="round"/>
<rect x="4" y="4.5" width="48" height="48" rx="24" stroke="#ECFDF3" stroke-width="8"/>
</svg>
