<svg width="57" height="56" viewBox="0 0 57 56" fill="none" xmlns="http://www.w3.org/2000/svg">
<rect x="4.5" y="4" width="48" height="48" rx="24" fill="#FEE4E2"/>
<path d="M28.5 26.5V23M28.5 30H28.51M26.4 35.2L27.86 37.1467C28.0771 37.4362 28.1857 37.5809 28.3188 37.6327C28.4353 37.678 28.5647 37.678 28.6812 37.6327C28.8143 37.5809 28.9229 37.4362 29.14 37.1467L30.6 35.2C30.8931 34.8091 31.0397 34.6137 31.2185 34.4645C31.4569 34.2656 31.7383 34.1248 32.0405 34.0535C32.2671 34 32.5114 34 33 34C34.3978 34 35.0967 34 35.6481 33.7716C36.3831 33.4672 36.9672 32.8831 37.2716 32.1481C37.5 31.5967 37.5 30.8978 37.5 29.5V23.8C37.5 22.1198 37.5 21.2798 37.173 20.638C36.8854 20.0735 36.4265 19.6146 35.862 19.327C35.2202 19 34.3802 19 32.7 19H24.3C22.6198 19 21.7798 19 21.138 19.327C20.5735 19.6146 20.1146 20.0735 19.827 20.638C19.5 21.2798 19.5 22.1198 19.5 23.8V29.5C19.5 30.8978 19.5 31.5967 19.7284 32.1481C20.0328 32.8831 20.6169 33.4672 21.3519 33.7716C21.9033 34 22.6022 34 24 34C24.4886 34 24.7329 34 24.9595 34.0535C25.2617 34.1248 25.5431 34.2656 25.7815 34.4645C25.9603 34.6137 26.1069 34.8091 26.4 35.2Z" stroke="#D92D20" stroke-width="2" stroke-linecap="round" stroke-linejoin="round"/>
<rect x="4.5" y="4" width="48" height="48" rx="24" stroke="#FEF3F2" stroke-width="8"/>
</svg>
