<svg width="19" height="19" viewBox="0 0 19 19" fill="none" xmlns="http://www.w3.org/2000/svg">
<path d="M14.0002 8.33332L10.6669 4.99999M1.0835 17.9167L3.9038 17.6033C4.24838 17.565 4.42067 17.5459 4.5817 17.4937C4.72457 17.4475 4.86054 17.3821 4.9859 17.2995C5.12721 17.2063 5.24978 17.0837 5.49493 16.8386L16.5002 5.83332C17.4207 4.91285 17.4207 3.42046 16.5002 2.49999C15.5797 1.57951 14.0873 1.57951 13.1669 2.49999L2.1616 13.5052C1.91645 13.7504 1.79388 13.8729 1.70069 14.0142C1.61802 14.1396 1.55268 14.2756 1.50642 14.4185C1.45429 14.5795 1.43515 14.7518 1.39686 15.0964L1.0835 17.9167Z" stroke="#667085" stroke-width="1.66667" stroke-linecap="round" stroke-linejoin="round"/>
</svg>
