<svg width="56" height="56" viewBox="0 0 56 56" fill="none" xmlns="http://www.w3.org/2000/svg">
<path d="M4 28C4 14.7452 14.7452 4 28 4C41.2548 4 52 14.7452 52 28C52 41.2548 41.2548 52 28 52C14.7452 52 4 41.2548 4 28Z" fill="#F4EBFF"/>
<path d="M30 18.2695V22.4001C30 22.9601 30 23.2401 30.109 23.4541C30.2049 23.6422 30.3578 23.7952 30.546 23.8911C30.7599 24.0001 31.0399 24.0001 31.6 24.0001H35.7305M32 29H24M32 33H24M26 25H24M30 18H24.8C23.1198 18 22.2798 18 21.638 18.327C21.0735 18.6146 20.6146 19.0735 20.327 19.638C20 20.2798 20 21.1198 20 22.8V33.2C20 34.8802 20 35.7202 20.327 36.362C20.6146 36.9265 21.0735 37.3854 21.638 37.673C22.2798 38 23.1198 38 24.8 38H31.2C32.8802 38 33.7202 38 34.362 37.673C34.9265 37.3854 35.3854 36.9265 35.673 36.362C36 35.7202 36 34.8802 36 33.2V24L30 18Z" stroke="#7F56D9" stroke-width="2" stroke-linecap="round" stroke-linejoin="round"/>
<path d="M28 48C16.9543 48 8 39.0457 8 28H0C0 43.464 12.536 56 28 56V48ZM48 28C48 39.0457 39.0457 48 28 48V56C43.464 56 56 43.464 56 28H48ZM28 8C39.0457 8 48 16.9543 48 28H56C56 12.536 43.464 0 28 0V8ZM28 0C12.536 0 0 12.536 0 28H8C8 16.9543 16.9543 8 28 8V0Z" fill="#F9F5FF"/>
</svg>
