<svg width="18" height="18" viewBox="0 0 18 18" fill="none" xmlns="http://www.w3.org/2000/svg">
<path d="M7.74976 10.25L16.4998 1.50004M7.85608 10.5234L10.0462 16.1551C10.2391 16.6512 10.3356 16.8993 10.4746 16.9717C10.5951 17.0345 10.7386 17.0346 10.8592 16.9719C10.9983 16.8997 11.095 16.6517 11.2886 16.1558L16.7805 2.08271C16.9552 1.63506 17.0426 1.41123 16.9948 1.26821C16.9533 1.144 16.8558 1.04653 16.7316 1.00503C16.5886 0.957253 16.3647 1.0446 15.9171 1.21929L1.84398 6.71124C1.34808 6.90476 1.10013 7.00152 1.02788 7.14061C0.965237 7.26118 0.965322 7.40472 1.0281 7.52522C1.10052 7.66423 1.34859 7.76069 1.84471 7.95363L7.47638 10.1437C7.57708 10.1829 7.62744 10.2025 7.66984 10.2327C7.70742 10.2595 7.74028 10.2924 7.76709 10.33C7.79734 10.3724 7.81692 10.4227 7.85608 10.5234Z" stroke="white" stroke-width="1.66667" stroke-linecap="round" stroke-linejoin="round"/>
</svg>
