<svg xmlns="http://www.w3.org/2000/svg" width="62" height="15" viewBox="0 0 62 15" fill="none">
<g clip-path="url(#clip0_1096_29555)">
<path d="M1.35986 0.81L12.4099 1.46L11.9299 0L1.35986 0.81Z" fill="#1C2A53"/>
<path d="M0.81 12.4702L1.46 1.41016L0 1.90016L0.81 12.4702Z" fill="#1C2A53"/>
<path d="M12.2199 13.2501L1.16992 12.6001L1.64992 14.0701L12.2199 13.2501Z" fill="#1C2A53"/>
<path d="M13.0099 1.52002L12.3599 12.58L13.8199 12.09L13.0099 1.52002Z" fill="#1C2A53"/>
<path d="M11.8698 10.0601C11.8698 11.1201 11.0098 11.9801 9.94979 11.9801C8.88979 11.9801 8.02979 11.1201 8.02979 10.0601C8.02979 9.00014 8.88979 8.14014 9.94979 8.14014C11.0098 8.14014 11.8698 9.00014 11.8698 10.0601Z" fill="#EE951E"/>
<path d="M16.0698 4.29004H18.0598L19.5498 9.74004L20.9898 4.29004H23.0298L24.5698 9.54004L26.0598 4.29004H27.8998L25.9198 11.75H23.4798L21.9898 6.88004L20.4498 11.8H18.2098L16.0698 4.29004Z" fill="#1C2A53"/>
<path d="M30.5098 11.9H28.5298V4.29004H30.5098V11.9Z" fill="#1C2A53"/>
<path d="M36.14 6.06987V4.28987C34.26 4.03987 33.36 4.31987 33.36 4.31987C33.36 4.31987 32.12 4.59987 31.67 5.70987C31.52 6.07987 31.33 6.95987 31.78 7.57987C32.06 7.96987 32.49 8.26987 33.09 8.55987C33.54 8.76987 34.55 9.10987 34.59 9.63987C34.63 10.1499 34.35 10.3599 33.54 10.4499C33.17 10.4899 32.79 10.4499 31.82 10.1499V11.8899C31.82 11.8899 33.07 12.1399 34.72 11.7699C34.72 11.7699 36.41 11.4299 36.51 9.68987C36.51 9.68987 36.71 8.26987 35.33 7.54987C35.33 7.54987 34.22 7.01987 34.06 6.91987C33.59 6.63987 33.53 6.31987 33.77 6.07987C33.96 5.88987 34.45 5.68987 36.14 6.07987V6.06987Z" fill="#1C2A53"/>
<path d="M37.6201 4.29004H42.2601V5.77004H39.5301V7.27004H42.2401V8.75004H39.5001V10.23H42.2401V11.9H37.6201V4.29004Z" fill="#1C2A53"/>
<path d="M43.5498 4.3001V11.9201H45.2098V7.7301C45.2098 7.7301 45.2198 6.1201 46.7798 5.7801C46.7798 5.7801 47.6498 5.6401 47.6798 6.4601V11.8701H49.4998V6.0401C49.4998 6.0401 49.5498 3.9201 47.3998 4.0701C47.3998 4.0701 46.0798 4.1001 45.2498 5.1501V4.3201H43.5598L43.5498 4.3001Z" fill="#EE951E"/>
<path d="M50.6602 4.31979H52.4002V9.73978C52.4002 9.73978 52.3902 10.4098 53.1502 10.4098C53.1502 10.4098 54.7602 10.4498 54.7602 7.88978V4.27979H56.5802V11.8998H54.8802V10.6998C54.8802 10.6998 54.3802 12.0698 52.5802 12.0698C52.5802 12.0698 50.6702 12.2198 50.6702 9.94978C50.6702 8.15978 50.6702 6.88979 50.6702 4.31979H50.6602Z" fill="#EE951E"/>
<path d="M60.0399 1.56982L58.3699 2.05982V4.29982H57.1699V5.99982H58.3399V10.1498C58.3399 10.1498 58.2899 12.0998 60.4699 12.1098C60.4699 12.1098 61.2399 12.1398 61.7399 11.9198V10.2598C61.7399 10.2598 60.2699 10.7298 60.0599 9.59982V5.99982H61.7399V4.31982H60.0599V1.56982H60.0499H60.0399Z" fill="#EE951E"/>
</g>
<defs>
<clipPath id="clip0_1096_29555">
<rect width="61.74" height="14.07" fill="white"/>
</clipPath>
</defs>
</svg>